<?xml version="1.0" encoding="utf-8"?>
<!-- Generator: Adobe Illustrator 28.1.0, SVG Export Plug-In . SVG Version: 6.00 Build 0)  -->
<svg version="1.1" id="Layer_1" xmlns="http://www.w3.org/2000/svg" xmlns:xlink="http://www.w3.org/1999/xlink" x="0px" y="0px"
	 viewBox="0 0 75 75" style="enable-background:new 0 0 75 75;" xml:space="preserve">
<style type="text/css">
	.st0{fill:#302E31;}
	.st1{fill:#C4C2C4;}
</style>
<circle class="st0" cx="37.5" cy="37.5" r="35.8"/>
<path class="st1" d="M19.3,18.7c1.1-5.3,4.7-10.1,9.5-12.5C28,7.1,27,7.7,26.2,8.6c-3.2,3.4-4.6,8.4-3.8,13
	c1.1,7,7.7,12.7,14.8,12.6c5.5,0.2,10.9-2.9,13.6-7.7c5.8,0.2,11.4,3.2,14.7,8c1.7,2.5,3,5.4,3.1,8.5c-1.1-4-3.8-7.7-7.4-9.7
	c-3.5-2-7.9-2.5-11.8-1.3c-4.9,1.4-8.9,5.4-10.3,10.3c-1.2,3.9-0.7,8.2,1.2,11.8c-2.6,4.5-7.2,7.7-12.3,8.6c-3.9,0.8-8,0.2-11.6-1.5
	c3.2,0.9,6.8,1.1,10,0c4.3-1.4,7.9-4.9,9.5-9.2c1.7-4.7,1.1-10.2-1.8-14.2c-2.2-3.2-5.6-5.4-9.4-6.2c-1.2-0.2-2.4-0.3-3.6-0.4
	C19.1,27.4,18.4,22.9,19.3,18.7L19.3,18.7z"/>
</svg>
